<svg xmlns:xlink="http://www.w3.org/1999/xlink" width="20" height="20" viewBox="0 0 20 20" fill="none" xmlns="http://www.w3.org/2000/svg" class="h-5 w-5 shrink-0" color="primary"><path d="M7.50004 2.5H12.5M7.50004 2.5V7.72992C7.50004 8.11981 7.36335 8.49737 7.11374 8.79689L4.04241 12.4825C3.58427 13.0323 3.33337 13.7252 3.33337 14.4409C3.33337 16.1304 4.70299 17.5 6.39249 17.5H13.6076C15.2971 17.5 16.6667 16.1304 16.6667 14.4409C16.6667 13.7252 16.4158 13.0323 15.9577 12.4825L12.8863 8.79689C12.6367 8.49737 12.5 8.11981 12.5 7.72992V2.5M7.50004 2.5H6.66671M12.5 2.5H13.3334" stroke="#0D0D0D" stroke-width="1.33px" stroke-linecap="round" stroke-linejoin="round" fill="none"></path><path d="M5.59998 10.774C9.59998 8.83904 9.99998 12.7089 13.6 10" stroke="#0D0D0D" stroke-width="1.33px" stroke-linecap="round" stroke-linejoin="round" fill="none"></path><circle cx="7.5" cy="13.5" r="1" fill="#0D0D0D"></circle><circle cx="9.7" cy="14.7" r="0.7" fill="#0D0D0D"></circle></svg>