<svg xmlns:xlink="http://www.w3.org/1999/xlink" xmlns="http://www.w3.org/2000/svg" width="20" height="20" viewBox="0 0 24 24" fill="none" stroke="#4c6ef5" stroke-width="2" stroke-linecap="round" stroke-linejoin="round" class="tabler-icon tabler-icon-list-details "><path d="M13 5h8" stroke="#4C6EF5" fill="none" stroke-width="2px"></path><path d="M13 9h5" stroke="#4C6EF5" fill="none" stroke-width="2px"></path><path d="M13 15h8" stroke="#4C6EF5" fill="none" stroke-width="2px"></path><path d="M13 19h5" stroke="#4C6EF5" fill="none" stroke-width="2px"></path><path d="M3 4m0 1a1 1 0 0 1 1 -1h4a1 1 0 0 1 1 1v4a1 1 0 0 1 -1 1h-4a1 1 0 0 1 -1 -1z" stroke="#4C6EF5" fill="none" stroke-width="2px"></path><path d="M3 14m0 1a1 1 0 0 1 1 -1h4a1 1 0 0 1 1 1v4a1 1 0 0 1 -1 1h-4a1 1 0 0 1 -1 -1z" stroke="#4C6EF5" fill="none" stroke-width="2px"></path></svg>