<svg xmlns:xlink="http://www.w3.org/1999/xlink" xmlns="http://www.w3.org/2000/svg" style="width:100%;height:100%;overflow: visible;" preserveAspectRatio="none" width="15" height="15"><defs><svg viewBox="0 0 14.802 14.801" overflow="visible" id="svg262777501_1224"><path d="M 0.003 1.412 L 0.35 6.094 C 0.454 7.495 1.621 8.579 3.026 8.579 L 3.588 8.579 L 3.18 8.812 C 2.32 9.304 1.636 10.053 1.222 10.953 C 0.818 11.835 1.061 12.878 1.814 13.489 L 2.592 14.119 C 3.573 14.914 4.992 15.108 5.86 14.19 C 6.596 13.411 6.916 12.659 6.984 12.488 C 6.994 12.463 7.002 12.438 7.01 12.413 L 7.246 11.674 C 7.334 11.396 7.386 11.108 7.401 10.818 C 7.415 11.108 7.467 11.396 7.556 11.674 L 7.792 12.413 C 7.799 12.438 7.808 12.463 7.818 12.488 C 7.885 12.659 8.206 13.411 8.942 14.19 C 9.809 15.108 11.229 14.915 12.21 14.12 L 12.986 13.489 C 13.74 12.878 13.984 11.835 13.579 10.953 C 13.166 10.053 12.481 9.305 11.622 8.812 L 11.214 8.579 L 11.775 8.579 C 13.18 8.579 14.347 7.495 14.451 6.094 L 14.798 1.412 C 14.879 0.321 13.7 -0.388 12.798 0.23 C 11.418 1.174 9.782 2.388 9.146 3.233 C 8.018 4.731 7.453 6.08 7.401 6.208 C 7.349 6.08 6.783 4.731 5.655 3.232 C 5.019 2.388 3.383 1.174 2.004 0.229 C 1.102 -0.388 -0.078 0.321 0.004 1.412" fill="#000000" stroke="#FAF9F6" stroke-linecap="round" stroke-linejoin="round" stroke-dasharray="" fill-opacity="0"></path></svg></defs><use href="#svg262777501_1224"></use></svg>