<svg xmlns:xlink="http://www.w3.org/1999/xlink" xmlns="http://www.w3.org/2000/svg" fill="currentColor" viewBox="0 0 24 24" width="24" height="24" class="shrink-0 h-4 w-4"><path fill="#5F5F5D" d="M3.752 7a2.25 2.25 0 0 1 2.25-2.25h12A2.25 2.25 0 0 1 20.252 7v8a2.25 2.25 0 0 1-2.25 2.25h-1a.75.75 0 0 0-.75.75v1.676l-3.864-2.319-.09-.046a.8.8 0 0 0-.296-.061h-6A2.25 2.25 0 0 1 3.752 15zm-1.5 8a3.75 3.75 0 0 0 3.75 3.75h5.792l4.822 2.894A.75.75 0 0 0 17.752 21v-2.25h.25a3.75 3.75 0 0 0 3.75-3.75V7a3.75 3.75 0 0 0-3.75-3.75h-12A3.75 3.75 0 0 0 2.252 7z"></path></svg>