<svg xmlns:xlink="http://www.w3.org/1999/xlink" xmlns="http://www.w3.org/2000/svg" width="18" height="18" viewBox="0 0 24 24" fill="none" stroke="currentColor" stroke-width="2" stroke-linecap="round" stroke-linejoin="round" class="tabler-icon tabler-icon-coffee " style="color:#868e96"><path d="M3 14c.83 .642 2.077 1.017 3.5 1c1.423 .017 2.67 -.358 3.5 -1c.83 -.642 2.077 -1.017 3.5 -1c1.423 -.017 2.67 .358 3.5 1" stroke="#868E96" fill="none" stroke-width="2px"></path><path d="M8 3a2.4 2.4 0 0 0 -1 2a2.4 2.4 0 0 0 1 2" stroke="#868E96" fill="none" stroke-width="2px"></path><path d="M12 3a2.4 2.4 0 0 0 -1 2a2.4 2.4 0 0 0 1 2" stroke="#868E96" fill="none" stroke-width="2px"></path><path d="M3 10h14v5a6 6 0 0 1 -6 6h-2a6 6 0 0 1 -6 -6v-5z" stroke="#868E96" fill="none" stroke-width="2px"></path><path d="M16.746 16.726a3 3 0 1 0 .252 -5.555" stroke="#868E96" fill="none" stroke-width="2px"></path></svg>