<svg xmlns:xlink="http://www.w3.org/1999/xlink" width="20" height="20" viewBox="0 0 20 20" fill="none" xmlns="http://www.w3.org/2000/svg" class="icon-md relative z-10"><path d="M16.417 7.3335C16.417 6.62246 16.4161 6.12913 16.3848 5.74561C16.3617 5.4636 16.324 5.27415 16.2725 5.13037L16.2168 5.00049C16.0628 4.6983 15.8286 4.44536 15.541 4.26904L15.4151 4.19873C15.2571 4.11825 15.0454 4.06147 14.6699 4.03076C14.2865 3.99943 13.7929 3.99854 13.0821 3.99854H6.91506C6.20402 3.99854 5.71069 3.99943 5.32717 4.03076C5.04531 4.0538 4.85568 4.09065 4.71193 4.14209L4.58205 4.19873C4.27979 4.35275 4.02692 4.58687 3.8506 4.87451L3.78029 5.00049C3.69978 5.1585 3.64303 5.3699 3.61232 5.74561C3.58099 6.12912 3.5801 6.62246 3.5801 7.3335V12.2612C3.5801 12.9039 3.58393 13.1238 3.61916 13.2925L3.65139 13.4243C3.83825 14.0744 4.37075 14.5736 5.04006 14.7134L5.18166 14.7339C5.34461 14.7497 5.58845 14.7515 6.07033 14.7515C6.26764 14.7515 6.40358 14.7512 6.53811 14.7622L6.71779 14.7817C7.13693 14.8402 7.54104 14.9829 7.90529 15.2007L8.08107 15.3149C8.14308 15.3577 8.21075 15.406 8.29103 15.4634L9.61037 16.4058L9.90432 16.6089C9.96211 16.6445 9.97093 16.6427 9.95705 16.6392L9.99807 16.644C10.0121 16.6441 10.0264 16.6426 10.0401 16.6392L10.0918 16.6089C10.1566 16.569 10.2402 16.5105 10.3867 16.4058L11.7061 15.4634L11.9151 15.3149C11.9771 15.2721 12.0338 15.2354 12.0918 15.2007L12.25 15.1118C12.625 14.9158 13.0361 14.7967 13.459 14.7622L13.669 14.7534C13.7442 14.7522 13.8273 14.7515 13.9258 14.7515C14.5684 14.7515 14.7884 14.7486 14.9571 14.7134L15.0889 14.6802C15.7389 14.4934 16.238 13.9617 16.3779 13.2925L16.3985 13.1499C16.4143 12.9869 16.417 12.7429 16.417 12.2612V7.3335ZM17.7471 12.2612C17.7471 12.6931 17.7485 13.0205 17.7197 13.2993L17.6797 13.564C17.4385 14.7186 16.5777 15.6364 15.4561 15.9585L15.2285 16.0151C14.8915 16.0855 14.5013 16.0815 13.9258 16.0815L13.5674 16.0884C13.3573 16.1055 13.1521 16.1583 12.961 16.2446L12.7744 16.3423L12.4785 16.5454L11.1602 17.4878C10.9562 17.6335 10.733 17.8026 10.4776 17.894L10.3662 17.9282C10.1852 17.9741 9.99775 17.9863 9.8135 17.9634L9.63088 17.9282C9.40371 17.8707 9.20168 17.7452 9.01662 17.6157L8.83693 17.4878L7.5176 16.5454L7.22268 16.3423C7.04168 16.2341 6.84355 16.1575 6.63771 16.1167L6.42971 16.0884C6.36152 16.0828 6.28868 16.0815 6.07033 16.0815C5.63841 16.0815 5.31112 16.0839 5.03225 16.0552L4.7676 16.0151C3.61311 15.7739 2.69518 14.9129 2.37307 13.7915L2.3174 13.564C2.247 13.2269 2.25002 12.8369 2.25002 12.2612V7.3335C2.25002 6.64441 2.24937 6.08745 2.28615 5.63721C2.32356 5.17942 2.40294 4.77359 2.59475 4.39697L2.71682 4.17822C3.02091 3.68251 3.4575 3.27867 3.97853 3.01318L4.12111 2.94678C4.4574 2.80254 4.81812 2.73733 5.21877 2.70459C5.66901 2.6678 6.22597 2.66846 6.91506 2.66846H13.0821C13.771 2.66846 14.3282 2.66781 14.7783 2.70459C15.2361 2.74202 15.642 2.82133 16.0186 3.01318L16.2363 3.13525C16.7323 3.43936 17.1358 3.87577 17.4014 4.39697L17.4688 4.53955C17.613 4.87579 17.6772 5.23663 17.71 5.63721C17.7468 6.08745 17.7471 6.6444 17.7471 7.3335V12.2612Z" fill="#0D0D0D"></path><path fill-rule="evenodd" clip-rule="evenodd" d="M11.3232 12.2014C11.638 12.3903 12.0462 12.2885 12.2353 11.9738L13.4853 9.88985C13.6115 9.67933 13.6115 9.41678 13.4853 9.20625L12.2353 7.12227C12.0462 6.8076 11.638 6.70584 11.3232 6.89473C11.0084 7.08368 10.9059 7.49197 11.0946 7.80684L12.1386 9.54805L11.0946 11.2893C10.9059 11.6041 11.0084 12.0124 11.3232 12.2014Z" fill="#0D0D0D"></path><path fill-rule="evenodd" clip-rule="evenodd" d="M8.67684 12.2014C8.36202 12.3903 7.95378 12.2885 7.76473 11.9738L6.51473 9.88985C6.38849 9.67933 6.38849 9.41678 6.51473 9.20625L7.76473 7.12227C7.95378 6.8076 8.36202 6.70584 8.67684 6.89473C8.99163 7.08368 9.09414 7.49197 8.90536 7.80684L7.86141 9.54805L8.90536 11.2893C9.09414 11.6041 8.99163 12.0124 8.67684 12.2014Z" fill="#0D0D0D"></path></svg>