<svg xmlns:xlink="http://www.w3.org/1999/xlink" width="20" height="20" viewBox="0 0 20 20" fill="none" xmlns="http://www.w3.org/2000/svg" class="h-5 w-5 shrink-0" color="primary"><path fill-rule="evenodd" clip-rule="evenodd" d="M7.64258 2.25098C7.92412 2.25111 8.17552 2.42896 8.26953 2.69434C8.52175 3.40794 9.20207 3.91797 10 3.91797C10.7979 3.91797 11.4782 3.40794 11.7305 2.69434C11.8245 2.42896 12.0759 2.25111 12.3574 2.25098H14.583C15.8707 2.25098 16.9149 3.29537 16.915 4.58301V15.416C16.915 16.7038 15.8708 17.748 14.583 17.748H12.3574C12.0757 17.7479 11.8244 17.5703 11.7305 17.3047C11.4782 16.5912 10.7978 16.0811 10 16.0811C9.20215 16.0811 8.52182 16.5912 8.26953 17.3047C8.17565 17.5703 7.92428 17.7479 7.64258 17.748H5.41699C4.12925 17.748 3.08496 16.7038 3.08496 15.416V4.58301C3.08508 3.29537 4.12932 2.25098 5.41699 2.25098H7.64258ZM5.41699 3.58105C4.86386 3.58105 4.41516 4.0299 4.41504 4.58301V15.416C4.41504 15.9692 4.86379 16.418 5.41699 16.418H7.21191C7.74592 15.4265 8.79344 14.751 10 14.751C11.2066 14.751 12.2541 15.4265 12.7881 16.418H14.583C15.1362 16.418 15.585 15.9692 15.585 15.416V4.58301C15.5848 4.0299 15.1361 3.58105 14.583 3.58105H12.7881C12.2542 4.57276 11.2067 5.24805 10 5.24805C8.79326 5.24805 7.74584 4.57276 7.21191 3.58105H5.41699Z" fill="#0D0D0D"></path><path d="M8 10H10M12 10H10M10 10V8M10 10V12" stroke="#0D0D0D" stroke-width="1.33px" stroke-linecap="round" stroke-linejoin="round" fill="none"></path></svg>