<svg xmlns:xlink="http://www.w3.org/1999/xlink" width="20" height="20" viewBox="0 0 20 20" fill="currentColor" xmlns="http://www.w3.org/2000/svg" class="icon" aria-hidden="true"><path d="M10.3662 13.8887C10.1082 14.0589 9.75749 14.0306 9.53027 13.8037L6.61328 10.8867L6.52832 10.7822C6.35798 10.5242 6.38621 10.1735 6.61328 9.94629C6.84051 9.71932 7.19121 9.691 7.44922 9.86133L7.55371 9.94629L9.33496 11.7275L9.33496 6.66601C9.3353 6.29914 9.63309 6.00115 10 6.00098C10.3669 6.00111 10.6647 6.29912 10.665 6.66601L10.665 11.7275L12.4463 9.94629L12.5508 9.86133C12.8089 9.69084 13.1604 9.71905 13.3877 9.94629C13.6469 10.2059 13.6468 10.6271 13.3877 10.8867L10.4707 13.8037L10.3662 13.8887Z" fill="#0D0D0D"></path><path d="M10 17.915C5.62867 17.915 2.08496 14.3713 2.08496 10C2.08496 5.62866 5.62867 2.08496 10 2.08496C14.3713 2.08496 17.915 5.62867 17.915 10C17.915 14.3713 14.3713 17.915 10 17.915ZM10 16.585C13.6368 16.585 16.585 13.6368 16.585 10C16.585 6.3632 13.6368 3.41504 10 3.41504C6.36321 3.41504 3.41504 6.3632 3.41504 10C3.41504 13.6368 6.3632 16.585 10 16.585Z" fill="#0D0D0D"></path></svg>