<svg xmlns:xlink="http://www.w3.org/1999/xlink" width="20" height="20" viewBox="0 0 20 20" fill="currentColor" xmlns="http://www.w3.org/2000/svg" class="text-token-text-tertiary absolute z-0 h-12 w-12 text-red-500"><path d="M9.99512 12.3145C10.4837 12.3145 10.8701 12.6847 10.8701 13.1572C10.87 13.6296 10.4836 14 9.99512 14C9.50661 14 9.12021 13.6296 9.12012 13.1572C9.12012 12.6848 9.50655 12.3145 9.99512 12.3145Z" fill="#8F8F8F"></path><path d="M10.001 6C10.4785 6.00018 10.7792 6.29538 10.7793 6.78906C10.7793 6.83198 10.7788 6.89653 10.7734 6.9502L10.6934 10.666C10.6772 11.1222 10.4407 11.3906 9.99512 11.3906C9.54959 11.3906 9.31355 11.1222 9.30273 10.666L9.2168 6.9502C9.21679 6.89653 9.21094 6.83198 9.21094 6.78906C9.21102 6.29522 9.51782 6 10.001 6Z" fill="#8F8F8F"></path><path fill-rule="evenodd" clip-rule="evenodd" d="M10 2.08496C14.3713 2.08496 17.915 5.62867 17.915 10C17.915 14.3713 14.3713 17.915 10 17.915C5.62867 17.915 2.08496 14.3713 2.08496 10C2.08496 5.62867 5.62867 2.08496 10 2.08496ZM10 3.41504C6.3632 3.41504 3.41504 6.3632 3.41504 10C3.41504 13.6368 6.3632 16.585 10 16.585C13.6368 16.585 16.585 13.6368 16.585 10C16.585 6.3632 13.6368 3.41504 10 3.41504Z" fill="#8F8F8F"></path></svg>