<svg xmlns:xlink="http://www.w3.org/1999/xlink" width="20" height="20" viewBox="0 0 20 20" fill="currentColor" xmlns="http://www.w3.org/2000/svg" class="icon" aria-hidden="true"><path d="M3.50171 17.5003V3.84799C3.50185 3.29 3.81729 2.74214 4.37476 2.50522L4.80737 2.3353C6.9356 1.5739 8.52703 2.07695 9.948 2.60385C11.4516 3.16139 12.6757 3.68996 14.3953 3.19272L14.572 3.15268C15.4652 3.00232 16.4988 3.59969 16.4988 4.68198V11.8998C16.4986 12.4958 16.1364 13.0672 15.5427 13.2777L15.4216 13.3148C12.9279 13.9583 11.1667 13.2387 9.60815 12.7621C8.82352 12.5221 8.0928 12.3401 7.28784 12.3441C6.5809 12.3477 5.78505 12.4961 4.83179 12.9212V17.5003C4.83161 17.8675 4.53391 18.1654 4.16675 18.1654C3.79959 18.1654 3.50189 17.8675 3.50171 17.5003ZM4.83179 11.4847C5.71955 11.1539 6.52428 11.0178 7.28101 11.014C8.2928 11.0089 9.17964 11.2406 9.99683 11.4906C11.642 11.9938 13.024 12.5603 15.0886 12.0277L15.115 12.016C15.1234 12.0102 15.1316 12.0021 15.1394 11.9915C15.1561 11.969 15.1686 11.9366 15.1687 11.8998V4.68198C15.1687 4.62687 15.1436 4.56746 15.0652 4.51596C15.0021 4.47458 14.9225 4.45221 14.8435 4.45639L14.7644 4.47006C12.5587 5.10779 10.9184 4.38242 9.48511 3.85092C8.15277 3.3569 6.92639 2.98314 5.23804 3.59311L4.89429 3.72885C4.8709 3.73888 4.83192 3.77525 4.83179 3.84799V11.4847Z" fill="#0D0D0D"></path></svg>