<svg xmlns:xlink="http://www.w3.org/1999/xlink" xmlns="http://www.w3.org/2000/svg" fill="currentColor" viewBox="0 0 24 24" width="40" height="40" class="shrink-0 h-10 w-10"><path fill="#1C1C1C" d="M20.25 11.75H3.75V16A2.25 2.25 0 0 0 6 18.25h12A2.25 2.25 0 0 0 20.25 16zm1.5 4.25A3.75 3.75 0 0 1 18 19.75H6A3.75 3.75 0 0 1 2.25 16V8A3.75 3.75 0 0 1 6 4.25h1.758a3.75 3.75 0 0 1 2.651 1.099l.242.242c.422.422.995.659 1.591.659H18A3.75 3.75 0 0 1 21.75 10zm-18-5.75h16.5V10A2.25 2.25 0 0 0 18 7.75h-5.758a3.75 3.75 0 0 1-2.651-1.099l-.242-.242a2.25 2.25 0 0 0-1.591-.659H6A2.25 2.25 0 0 0 3.75 8z"></path></svg>