<svg xmlns:xlink="http://www.w3.org/1999/xlink" width="20" height="20" viewBox="0 0 20 20" fill="none" xmlns="http://www.w3.org/2000/svg" class="h-5 w-5 shrink-0" color="primary"><path fill-rule="evenodd" clip-rule="evenodd" d="M10 17.915C14.3713 17.915 17.915 14.3713 17.915 10C17.915 5.62867 14.3713 2.08496 10 2.08496C5.62867 2.08496 2.08496 5.62867 2.08496 10C2.08496 14.3713 5.62867 17.915 10 17.915ZM16.585 10C16.585 6.3632 13.6368 3.41504 10 3.41504C6.3632 3.41504 3.41504 6.3632 3.41504 10C3.41504 13.6368 6.3632 16.585 10 16.585C13.6368 16.585 16.585 13.6368 16.585 10Z" fill="#0D0D0D"></path><path d="M5.80005 9L7.30005 8L8.80005 9" stroke="#0D0D0D" stroke-width="1.33px" stroke-linecap="round" stroke-linejoin="round" fill="none"></path><path d="M11.2 9L12.7 8L14.2 9" stroke="#0D0D0D" stroke-width="1.33px" stroke-linecap="round" stroke-linejoin="round" fill="none"></path></svg>