<svg xmlns:xlink="http://www.w3.org/1999/xlink" xmlns="http://www.w3.org/2000/svg" fill="currentColor" viewBox="0 0 24 24" width="24" height="24" class="shrink-0 h-4 w-4 text-muted-foreground"><path fill="#5F5F5D" d="M14.25 17.75h-4.5V18a2.25 2.25 0 0 0 4.5 0zm3.5-8.25a5.75 5.75 0 1 0-9.653 4.223c.688.637 1.346 1.496 1.571 2.527h4.664c.225-1.03.883-1.89 1.571-2.527A5.73 5.73 0 0 0 17.75 9.5m1.5 0c0 2.105-.898 4-2.33 5.324-.712.66-1.17 1.414-1.17 2.176v1a3.75 3.75 0 1 1-7.5 0v-1c0-.762-.458-1.516-1.17-2.176A7.25 7.25 0 1 1 19.25 9.5"></path></svg>