<svg xmlns:xlink="http://www.w3.org/1999/xlink" width="20" height="20" viewBox="0 0 20 20" fill="none" xmlns="http://www.w3.org/2000/svg" class="icon" aria-hidden="true"><path d="M7.82373 7.35312L7.82391 7.35249L11.6726 9.65779L13.9659 8.6927C14.4319 8.49124 14.9344 8.38793 15.4421 8.38843C15.5267 8.38843 15.6103 8.39227 15.6935 8.39782C15.4178 7.32269 14.8357 6.35079 14.0181 5.60023C13.2004 4.84966 12.1823 4.35275 11.0876 4.16987C9.99283 3.98699 8.86853 4.12601 7.8513 4.57005C6.83408 5.01409 5.96772 5.74403 5.35751 6.67115C5.37712 6.67091 5.39643 6.66968 5.41608 6.66968C6.26666 6.66852 7.10061 6.90525 7.82373 7.35312Z" fill="#0364B8"></path><path d="M7.82449 7.3525L7.82431 7.35313C7.10119 6.90526 6.26724 6.66853 5.41666 6.66968C5.39701 6.66968 5.37767 6.67091 5.35809 6.67116C4.52559 6.68147 3.71163 6.91843 3.00368 7.35659C2.29574 7.79475 1.72058 8.41754 1.34 9.15804C0.959422 9.89853 0.787821 10.7287 0.843637 11.5594C0.899452 12.3901 1.18057 13.1899 1.65679 13.8728L5.05075 12.4446L6.55948 11.8097L9.91879 10.396L11.6731 9.65779L7.82449 7.3525Z" fill="#0078D4"></path><path d="M15.6938 8.39782C15.6106 8.39227 15.527 8.38843 15.4424 8.38843C14.9347 8.38793 14.4323 8.49163 13.9663 8.6931L11.6728 9.65779L12.3378 10.0561L14.5178 11.3619L15.4688 11.9316L18.7209 13.8795C19.0164 13.331 19.1695 12.717 19.1663 12.0939C19.163 11.4709 19.0035 10.8586 18.7023 10.3131C18.4011 9.76768 17.9678 9.30653 17.4422 8.97191C16.9166 8.63729 16.3154 8.4399 15.6938 8.39782Z" fill="#1490DF"></path><path d="M15.4693 11.9315L14.5182 11.3618L12.3383 10.0561L11.6732 9.65771L9.9189 10.396L6.55959 11.8096L5.05086 12.4445L1.6569 13.8727C2.07866 14.4791 2.64091 14.9744 3.29564 15.3163C3.95037 15.6583 4.67813 15.8367 5.41676 15.8363H15.4428C16.115 15.8365 16.7748 15.6547 17.352 15.3101C17.9292 14.9656 18.4024 14.4712 18.7213 13.8794L15.4693 11.9315Z" fill="#28A8EA"></path></svg>