<svg xmlns:xlink="http://www.w3.org/1999/xlink" width="20" height="20" viewBox="0 0 20 20" fill="currentColor" xmlns="http://www.w3.org/2000/svg" class="icon-xl text-danger"><path d="M4.21847 10.1963C4.52646 10.1048 4.84811 10.2467 4.99386 10.5195L5.04561 10.6436L5.10909 10.8418C5.80511 12.8745 7.73253 14.335 9.99972 14.335C10.5286 14.3349 11.0387 14.2541 11.5192 14.1064L12.5534 15.1406C11.9635 15.3929 11.3293 15.5623 10.6648 15.6299L10.6657 16.835H12.0837L12.2175 16.8486C12.5205 16.9107 12.7487 17.1787 12.7487 17.5C12.7487 17.8213 12.5205 18.0893 12.2175 18.1514L12.0837 18.165H7.91671C7.54959 18.1649 7.25167 17.8672 7.25167 17.5C7.25167 17.1328 7.54959 16.8351 7.91671 16.835H9.33565L9.33468 15.6299C6.77542 15.3697 4.65621 13.6261 3.8503 11.2725L3.77022 11.0234L3.74483 10.8906C3.71789 10.5825 3.9105 10.2879 4.21847 10.1963Z" fill="#E02E2A"></path><path d="M2.52901 2.5293C2.75621 2.3021 3.10782 2.274 3.36593 2.44434L3.47042 2.5293L17.4704 16.5293L17.5554 16.6338C17.7259 16.8919 17.6977 17.2434 17.4704 17.4707C17.2431 17.6978 16.8916 17.7261 16.6335 17.5557L16.529 17.4707L2.52901 3.4707L2.44405 3.36621C2.2737 3.10816 2.30194 2.75653 2.52901 2.5293Z" fill="#E02E2A"></path><path d="M15.0056 10.5195C15.1514 10.2467 15.4729 10.1047 15.781 10.1963C16.1328 10.3012 16.3339 10.6715 16.2292 11.0234L16.1491 11.2725C15.9624 11.8178 15.7043 12.3299 15.3874 12.7988L14.4245 11.8359C14.6481 11.4661 14.8279 11.0665 14.9538 10.6436L15.0056 10.5195Z" fill="#E02E2A"></path><path d="M10.156 12.7432C10.1045 12.7454 10.0527 12.748 10.0007 12.748C8.0227 12.748 6.41884 11.1449 6.41866 9.16699V9.00586L10.156 12.7432Z" fill="#E02E2A"></path><path d="M10.0007 1.83496C11.9785 1.83529 13.5817 3.4391 13.5817 5.41699V9.16699C13.5817 9.70173 13.4627 10.2084 13.2526 10.6641L6.67452 4.08594C7.20297 2.76693 8.49303 1.83496 10.0007 1.83496Z" fill="#E02E2A"></path></svg>