<svg xmlns:xlink="http://www.w3.org/1999/xlink" xmlns="http://www.w3.org/2000/svg" fill="currentColor" viewBox="0 0 24 24" width="24" height="24" class="shrink-0 h-4 w-4"><path fill="#1C1C1C" d="M4.25 20v-3.25a1.5 1.5 0 0 1 1.5-1.5h3a.75.75 0 0 1 0 1.5H6.463A7.4 7.4 0 0 0 12 19.25 7.25 7.25 0 0 0 19.25 12a.75.75 0 0 1 1.5 0A8.75 8.75 0 0 1 12 20.75a8.9 8.9 0 0 1-6.25-2.571V20a.75.75 0 0 1-1.5 0m-1-8A8.75 8.75 0 0 1 12 3.25c2.423 0 4.656.988 6.262 2.583V4a.75.75 0 0 1 1.5 0v3.25a1.5 1.5 0 0 1-1.5 1.5h-3.25a.75.75 0 0 1 0-1.5h2.525A7.4 7.4 0 0 0 12 4.75 7.25 7.25 0 0 0 4.75 12a.75.75 0 0 1-1.5 0"></path></svg>