<svg xmlns:xlink="http://www.w3.org/1999/xlink" width="20" height="20" viewBox="0 0 20 20" fill="currentColor" xmlns="http://www.w3.org/2000/svg" class="icon" aria-hidden="true"><path d="M12.0303 4.11328C13.4406 2.70317 15.7275 2.70305 17.1377 4.11328C18.5474 5.52355 18.5476 7.81056 17.1377 9.2207L10.8457 15.5117C10.522 15.8354 10.2868 16.0723 10.0547 16.2627L9.82031 16.4394C9.61539 16.5794 9.39783 16.7003 9.1709 16.7998L8.94141 16.8916C8.75976 16.9582 8.57206 17.0072 8.35547 17.0518L7.59082 17.1865L5.19727 17.5859C5.05455 17.6097 4.90286 17.6358 4.77441 17.6455C4.67576 17.653 4.54196 17.6555 4.39648 17.6201L4.24707 17.5703C4.02415 17.4746 3.84119 17.3068 3.72559 17.0957L3.67969 17.0029C3.59322 16.8013 3.59553 16.6073 3.60547 16.4756C3.61519 16.3473 3.6403 16.1963 3.66406 16.0537L4.06348 13.6602C4.1638 13.0582 4.22517 12.6732 4.3584 12.3096L4.45117 12.0791C4.55073 11.8521 4.67152 11.6346 4.81152 11.4297L4.9873 11.1953C5.17772 10.9632 5.4146 10.728 5.73828 10.4043L12.0303 4.11328ZM6.67871 11.3447C6.32926 11.6942 6.14542 11.8803 6.01953 12.0332L5.90918 12.1797C5.81574 12.3165 5.73539 12.4618 5.66895 12.6133L5.60742 12.7666C5.52668 12.9869 5.48332 13.229 5.375 13.8789L4.97656 16.2725L4.97559 16.2744H4.97852L7.37207 15.875L8.08887 15.749C8.25765 15.7147 8.37336 15.6839 8.4834 15.6435L8.63672 15.581C8.78817 15.5146 8.93356 15.4342 9.07031 15.3408L9.2168 15.2305C9.36965 15.1046 9.55583 14.9207 9.90527 14.5713L14.8926 9.583L11.666 6.35742L6.67871 11.3447ZM16.1963 5.05371C15.3054 4.16303 13.8616 4.16305 12.9707 5.05371L12.6074 5.41601L15.833 8.64257L16.1963 8.27929C17.0869 7.38844 17.0869 5.94455 16.1963 5.05371Z" fill="#0D0D0D"></path><path d="M5.13477 6.68139L5 6.6687H2.5C2.13273 6.6687 1.83496 6.96647 1.83496 7.33374C1.83518 7.70082 2.13286 7.99877 2.5 7.99877H5L5.13477 7.9851C5.4375 7.92299 5.66485 7.6548 5.66504 7.33374C5.66504 7.01249 5.43764 6.74352 5.13477 6.68139Z" fill="#0D0D0D"></path><path d="M8.46777 3.34838L8.33301 3.33471H2.5C2.13281 3.33471 1.8351 3.6326 1.83496 3.99975C1.83496 4.36702 2.13273 4.66479 2.5 4.66479H8.33301L8.46777 4.65112C8.77057 4.58893 8.99805 4.32094 8.99805 3.99975C8.99793 3.67864 8.77054 3.41052 8.46777 3.34838Z" fill="#0D0D0D"></path></svg>