<svg xmlns:xlink="http://www.w3.org/1999/xlink" xmlns="http://www.w3.org/2000/svg" width="18" height="18" viewBox="0 0 24 24" fill="none" stroke="currentColor" stroke-width="2" stroke-linecap="round" stroke-linejoin="round" class="tabler-icon tabler-icon-share "><path d="M6 12m-3 0a3 3 0 1 0 6 0a3 3 0 1 0 -6 0" stroke="#B197FC" fill="none" stroke-width="2px"></path><path d="M18 6m-3 0a3 3 0 1 0 6 0a3 3 0 1 0 -6 0" stroke="#B197FC" fill="none" stroke-width="2px"></path><path d="M18 18m-3 0a3 3 0 1 0 6 0a3 3 0 1 0 -6 0" stroke="#B197FC" fill="none" stroke-width="2px"></path><path d="M8.7 10.7l6.6 -3.4" stroke="#B197FC" fill="none" stroke-width="2px"></path><path d="M8.7 13.3l6.6 3.4" stroke="#B197FC" fill="none" stroke-width="2px"></path></svg>