<svg xmlns:xlink="http://www.w3.org/1999/xlink" width="20" height="20" viewBox="0 0 20 20" fill="currentColor" xmlns="http://www.w3.org/2000/svg" class="icon" aria-hidden="true"><path d="M15.9951 7.32999C15.9951 6.61895 15.9942 6.12562 15.9629 5.7421C15.9398 5.46005 15.9021 5.27065 15.8506 5.12686L15.7949 4.99698C15.6409 4.69473 15.4068 4.44185 15.1191 4.26553L14.9932 4.19522C14.8352 4.11472 14.6237 4.05796 14.248 4.02725C13.8645 3.99592 13.3712 3.99503 12.6602 3.99503H7.33008C6.61904 3.99503 6.12571 3.99592 5.74219 4.02725C5.36648 4.05795 5.15508 4.11471 4.99707 4.19522C4.65183 4.37114 4.37124 4.65174 4.19531 4.99698C4.1148 5.15499 4.05805 5.36639 4.02734 5.7421C3.99601 6.12562 3.99512 6.61895 3.99512 7.32999V12.6601C3.99512 13.3711 3.99601 13.8645 4.02734 14.248C4.05805 14.6236 4.11481 14.8351 4.19531 14.9931L4.26563 15.1191C4.44194 15.4067 4.69482 15.6408 4.99707 15.7948L5.12695 15.8505C5.27074 15.902 5.46014 15.9398 5.74219 15.9628C6.12571 15.9941 6.61904 15.995 7.33008 15.995H12.6602C13.3712 15.995 13.8645 15.9941 14.248 15.9628C14.6237 15.9321 14.8352 15.8753 14.9932 15.7948L15.1191 15.7245C15.4068 15.5482 15.6409 15.2953 15.7949 14.9931L15.8506 14.8632C15.9021 14.7194 15.9398 14.53 15.9629 14.248C15.9942 13.8645 15.9951 13.3711 15.9951 12.6601V7.32999ZM17.3252 12.6601C17.3252 13.3491 17.3258 13.9061 17.2891 14.3564C17.2563 14.757 17.1911 15.1177 17.0469 15.454L16.9805 15.5966C16.7149 16.1179 16.3105 16.5542 15.8145 16.8583L15.5967 16.9804C15.2201 17.1722 14.8142 17.2516 14.3564 17.289C13.9062 17.3258 13.3492 17.3251 12.6602 17.3251H7.33008C6.64099 17.3251 6.08403 17.3258 5.63379 17.289C5.23315 17.2562 4.87242 17.191 4.53613 17.0468L4.39356 16.9804C3.87229 16.7148 3.43595 16.3104 3.13184 15.8144L3.00977 15.5966C2.81795 15.22 2.73859 14.8141 2.70117 14.3564C2.66439 13.9061 2.66504 13.3491 2.66504 12.6601V7.32999C2.66504 6.6409 2.66439 6.08394 2.70117 5.6337C2.73858 5.17591 2.81796 4.77008 3.00977 4.39346C3.31321 3.79793 3.79802 3.31311 4.39356 3.00967C4.77017 2.81787 5.176 2.73849 5.63379 2.70108C6.08403 2.66429 6.64099 2.66495 7.33008 2.66495H12.6602C13.3492 2.66495 13.9062 2.6643 14.3564 2.70108C14.8142 2.7385 15.2201 2.81786 15.5967 3.00967L15.8145 3.13175C16.3105 3.43586 16.7149 3.8722 16.9805 4.39346L17.0469 4.53604C17.1911 4.87233 17.2563 5.23306 17.2891 5.6337C17.3258 6.08394 17.3252 6.6409 17.3252 7.32999V12.6601Z" fill="#0D0D0D"></path><path d="M7.42654 10.6038L9.90146 6.85393C10.1554 6.46914 10.7538 6.72067 10.6565 7.17133L10.3159 8.74999H12.2258C12.5577 8.74999 12.7564 9.11915 12.5736 9.39617L10.0987 13.146C9.8447 13.5308 9.24637 13.2793 9.34362 12.8286L9.68427 11.25H7.7743C7.44238 11.25 7.24371 10.8808 7.42654 10.6038Z" fill="#0D0D0D"></path></svg>