<svg xmlns:xlink="http://www.w3.org/1999/xlink" width="20" height="20" viewBox="0 0 20 20" fill="currentColor" xmlns="http://www.w3.org/2000/svg" class="h-4 w-4"><path d="M4.12916 6.71647C3.30231 7.66684 2.69669 8.64386 2.31959 9.33561L2.1399 9.67643C2.03481 9.88215 2.03489 10.1172 2.1399 10.3229L2.31959 10.6637C2.79011 11.5269 3.61393 12.8363 4.78346 13.9811C6.11816 15.2875 7.85464 16.3346 10.0003 16.3346C11.1135 16.3346 12.116 16.0511 13.01 15.5973L13.9905 16.5778C12.8512 17.2276 11.5215 17.6646 10.0003 17.6647C7.38789 17.6647 5.33564 16.3827 3.8528 14.9313C2.55744 13.6633 1.65876 12.2312 1.14967 11.2965L0.955334 10.9284C0.6562 10.3426 0.656129 9.65668 0.955334 9.07096L1.14967 8.7028C1.56617 7.93819 2.24311 6.84027 3.18483 5.77213L4.12916 6.71647Z" fill="#0D0D0D"></path><path d="M2.52955 2.52897C2.75682 2.30194 3.10844 2.27358 3.36647 2.44401L3.47096 2.52897L17.471 16.529L17.5559 16.6335C17.7264 16.8915 17.698 17.2431 17.471 17.4704C17.2437 17.6976 16.8922 17.7258 16.634 17.5553L16.5296 17.4704L2.52955 3.47037L2.44459 3.36588C2.27419 3.10776 2.30233 2.75619 2.52955 2.52897Z" fill="#0D0D0D"></path><path d="M10.0003 2.33463C12.6124 2.33477 14.664 3.61673 16.1467 5.06803C17.6273 6.51728 18.5903 8.18058 19.0452 9.07096L19.1428 9.29557C19.311 9.75097 19.3109 10.2483 19.1428 10.7038L19.0452 10.9284C18.6628 11.6768 17.9199 12.9706 16.8137 14.2253L15.8714 13.2829C16.8454 12.1631 17.5118 11.0058 17.8606 10.3229L17.8948 10.2448C17.9539 10.0856 17.954 9.91374 17.8948 9.75455L17.8606 9.67643C17.4383 8.84982 16.5534 7.32638 15.2171 6.01822C13.8824 4.71194 12.1457 3.66485 10.0003 3.66471C8.88688 3.66471 7.88357 3.94723 6.98951 4.40104L6.00905 3.42057C7.14849 2.77093 8.47916 2.33463 10.0003 2.33463Z" fill="#0D0D0D"></path><path d="M7.78053 10.3678C7.93665 11.3159 8.68321 12.0619 9.63112 12.2184L10.8831 13.4704C10.6006 13.5421 10.305 13.5817 10.0003 13.5817C8.02216 13.5817 6.41822 11.9778 6.41822 9.99967C6.41825 9.69449 6.45574 9.39775 6.5276 9.1149L7.78053 10.3678Z" fill="#0D0D0D"></path><path d="M10.0003 6.41764C11.9781 6.41787 13.5811 8.02186 13.5813 9.99967C13.5813 10.304 13.5414 10.5994 13.47 10.8815L12.219 9.63053C12.0623 8.68292 11.3162 7.93616 10.3684 7.77994L9.11549 6.52701C9.39833 6.45518 9.69509 6.41764 10.0003 6.41764Z" fill="#0D0D0D"></path></svg>