<svg xmlns:xlink="http://www.w3.org/1999/xlink" width="20" height="20" viewBox="0 0 20 20" fill="none" xmlns="http://www.w3.org/2000/svg" class="h-5 w-5 shrink-0" color="primary"><path d="M16.3206 1.36075C16.2973 1.15542 16.1237 1.00021 15.9171 1C15.7104 0.999789 15.5365 1.15464 15.5128 1.35993C15.365 2.64161 14.6416 3.36501 13.3599 3.51284C13.1546 3.53652 12.9998 3.71044 13 3.91708C13.0002 4.12373 13.1554 4.29733 13.3608 4.32059C14.6243 4.4637 15.3978 5.18014 15.5118 6.4628C15.5304 6.67271 15.7064 6.83357 15.9171 6.83333C16.1279 6.8331 16.3035 6.67184 16.3217 6.46189C16.4311 5.19736 17.1974 4.43112 18.4619 4.32166C18.6718 4.30348 18.8331 4.12787 18.8333 3.91712C18.8336 3.70638 18.6727 3.5304 18.4628 3.51176C17.1801 3.39782 16.4637 2.62425 16.3206 1.36075Z" fill="#0D0D0D"></path><path d="M9.50016 3C9.53056 7.05405 12.9459 10.4786 17 10.4999C12.9459 10.4999 9.53056 13.9459 9.50016 18C9.46975 13.9459 6.05405 10.4999 2 10.4999C6.05405 10.4999 9.46975 7.05405 9.50016 3Z" stroke="#0D0D0D" stroke-width="1.33px" stroke-linejoin="round" fill="none"></path></svg>