<svg xmlns:xlink="http://www.w3.org/1999/xlink" width="21" height="20" viewBox="0 0 21 20" fill="currentColor" xmlns="http://www.w3.org/2000/svg"><path d="M10.2441 10.7759C12.7597 10.8965 14.8838 12.8648 14.8838 15.0601C14.8838 15.4273 14.586 15.7251 14.2188 15.7251H5.78125C5.41399 15.7251 5.11623 15.4273 5.11621 15.0601C5.11621 12.7959 7.37906 10.77 10 10.77L10.2441 10.7759Z" fill="#5D5D5D"></path><path d="M0 14.436C0 11.5616 3.13043 10.5652 5.2998 11.4478C4.37179 12.4185 3.78619 13.6736 3.78613 15.0601L3.78809 15.1011H0.665039C0.298096 15.1011 0.000527744 14.8029 0 14.436Z" fill="#5D5D5D"></path><path d="M14.7988 11.5532C16.969 10.4969 20.3301 11.4561 20.3301 14.436C20.3295 14.8029 20.032 15.1011 19.665 15.1011H16.2119L16.2139 15.0601C16.2138 13.7223 15.6689 12.5079 14.7988 11.5532Z" fill="#5D5D5D"></path><path d="M3.4248 5.00146C4.85516 5.00146 6.01454 6.16098 6.01465 7.59131C6.01454 9.02164 4.85516 10.1812 3.4248 10.1812C1.99454 10.181 0.835068 9.02157 0.834961 7.59131C0.835066 6.16105 1.99454 5.00157 3.4248 5.00146Z" fill="#5D5D5D"></path><path d="M16.5703 5.00146C18.0006 5.00157 19.1601 6.16105 19.1602 7.59131C19.16 9.02157 18.0006 10.181 16.5703 10.1812C15.14 10.1812 13.9806 9.02164 13.9805 7.59131C13.9806 6.16098 15.14 5.00146 16.5703 5.00146Z" fill="#5D5D5D"></path><path d="M10 4.27002C11.6099 4.27002 12.915 5.57515 12.915 7.18506C12.915 8.79497 11.6099 10.1001 10 10.1001C8.39009 10.1001 7.08496 8.79497 7.08496 7.18506C7.08496 5.57515 8.39009 4.27002 10 4.27002Z" fill="#5D5D5D"></path></svg>