<svg xmlns:xlink="http://www.w3.org/1999/xlink" width="20" height="20" viewBox="0 0 20 20" fill="currentColor" xmlns="http://www.w3.org/2000/svg" class="icon" aria-hidden="true"><path d="M16.0012 9.04175V7.33667C16.0012 6.62563 16.0013 6.1323 15.97 5.74878C15.9469 5.46683 15.9091 5.27732 15.8577 5.13355L15.802 5.00366C15.6481 4.70155 15.4137 4.44853 15.1262 4.27222L14.9993 4.20191C14.8413 4.12145 14.6297 4.06462 14.2542 4.03394C13.8707 4.00262 13.3771 4.00171 12.6663 4.00171H7.33325C6.62222 4.00171 6.12888 4.0026 5.74536 4.03394C5.46351 4.05697 5.27388 4.09383 5.13013 4.14526L5.00024 4.20191C4.69799 4.35592 4.44511 4.59005 4.2688 4.87769L4.19849 5.00366C4.11798 5.16167 4.06122 5.37307 4.03052 5.74878C3.99918 6.1323 3.99829 6.62563 3.99829 7.33667V12.6667C3.99829 13.3777 3.99918 13.8711 4.03052 14.2546C4.06122 14.6303 4.11798 14.8418 4.19849 14.9998L4.2688 15.1257C4.44512 15.4134 4.69799 15.6475 5.00024 15.8015L5.13013 15.8572C5.27391 15.9087 5.46332 15.9464 5.74536 15.9695C6.12888 16.0008 6.62221 16.0017 7.33325 16.0017H10.595C11.1459 16.0017 11.4691 15.9943 11.6956 15.9724C11.5803 15.7786 11.487 15.6063 11.4172 15.4392L11.3635 15.2986C10.9573 14.1144 11.2873 12.8022 12.2053 11.9509L12.3186 11.8523C12.5958 11.6268 12.9622 11.4246 13.4709 11.1384L15.9241 9.75855L15.9583 9.82007C15.965 9.78841 15.9747 9.75735 15.9797 9.72534L15.9915 9.62183C16.0006 9.50892 16.0012 9.35336 16.0012 9.04175ZM14.1233 12.2976C13.636 12.5717 13.3907 12.7131 13.2375 12.823L13.1096 12.9255C12.5774 13.419 12.3859 14.1804 12.6213 14.8669L12.6858 15.0183C12.7265 15.1013 12.7848 15.2005 12.8674 15.3367C13.0089 15.1523 13.1785 14.8669 13.4905 14.321L14.8948 11.863L14.1233 12.2976ZM10.0002 9.33472C10.3673 9.33489 10.6652 9.63271 10.6653 9.99976C10.6653 10.3669 10.3674 10.6646 10.0002 10.6648H6.66626C6.29914 10.6646 6.00122 10.3669 6.00122 9.99976C6.00136 9.63271 6.29922 9.33489 6.66626 9.33472H10.0002ZM7.79614 6.00171L7.92993 6.01538C8.23318 6.07722 8.46118 6.34524 8.46118 6.66675C8.46115 6.98824 8.23317 7.25629 7.92993 7.31812L7.79614 7.33179H6.66626C6.29917 7.33161 6.00126 7.03387 6.00122 6.66675C6.00122 6.29959 6.29914 6.00189 6.66626 6.00171H7.79614ZM13.3333 6.00171L13.467 6.01538C13.7702 6.07732 13.9983 6.34532 13.9983 6.66675C13.9983 6.98815 13.7702 7.25619 13.467 7.31812L13.3333 7.33179H10.2961C9.92902 7.33165 9.63115 7.0339 9.6311 6.66675C9.6311 6.29956 9.92899 6.00185 10.2961 6.00171H13.3333ZM17.3313 9.04175C17.3313 9.32336 17.3331 9.53907 17.3167 9.73706L17.2932 9.9314C17.2677 10.0937 17.2293 10.2536 17.179 10.4099L17.1252 10.5652C17.0792 10.6862 17.0235 10.8026 16.9563 10.9294L16.717 11.3562L14.6458 14.9812C14.2984 15.5891 14.0513 16.0335 13.7327 16.3728L13.5911 16.5125C13.3022 16.7742 12.9676 16.9799 12.6047 17.1199L12.4475 17.1755C11.9451 17.3394 11.3951 17.3318 10.595 17.3318H7.33325C6.64416 17.3318 6.0872 17.3324 5.63696 17.2957C5.23632 17.2629 4.87559 17.1977 4.53931 17.0535L4.39673 16.9871C3.87547 16.7215 3.43912 16.3171 3.13501 15.821L3.01294 15.6033C2.82112 15.2267 2.74176 14.8208 2.70435 14.363C2.66756 13.9128 2.66821 13.3558 2.66821 12.6667V7.33667C2.66821 6.64758 2.66756 6.09062 2.70435 5.64038C2.74176 5.18259 2.82113 4.77676 3.01294 4.40015L3.13501 4.1814C3.4391 3.68568 3.87569 3.28184 4.39673 3.01636L4.53931 2.94995C4.8756 2.80571 5.23632 2.74051 5.63696 2.70776C6.0872 2.67098 6.64416 2.67163 7.33325 2.67163H12.6663C13.3553 2.67163 13.9123 2.67099 14.3625 2.70776C14.8206 2.74518 15.227 2.82439 15.6038 3.01636L15.8215 3.13843C16.3174 3.44253 16.7211 3.87903 16.9866 4.40015L17.053 4.54273C17.1973 4.87904 17.2624 5.2397 17.2952 5.64038C17.332 6.09062 17.3313 6.64758 17.3313 7.33667V9.04175Z" fill="#0D0D0D"></path></svg>