<svg xmlns:xlink="http://www.w3.org/1999/xlink" xmlns="http://www.w3.org/2000/svg" fill="currentColor" viewBox="0 0 24 24" width="24" height="24" class="shrink-0 h-4 w-4"><path fill="#1C1C1C" d="M12 2.25c5.385 0 9.75 4.365 9.75 9.75s-4.365 9.75-9.75 9.75q-.728 0-1.43-.105a.75.75 0 0 1 .218-1.483q.593.087 1.212.088a8.25 8.25 0 1 0-1.212-16.412.75.75 0 0 1-.219-1.484A10 10 0 0 1 12 2.25M4.323 16.76a.75.75 0 0 1 1.05.154 8.3 8.3 0 0 0 1.713 1.713.75.75 0 0 1-.895 1.204A9.8 9.8 0 0 1 4.17 17.81a.75.75 0 0 1 .154-1.05"></path><path fill="#1C1C1C" d="M12 7.25a.75.75 0 0 1 .75.75v3.69l2.78 2.78a.75.75 0 1 1-1.06 1.06l-3-3a.75.75 0 0 1-.22-.53V8a.75.75 0 0 1 .75-.75M2.354 10.57a.75.75 0 0 1 1.484.218 8.3 8.3 0 0 0 0 2.424.75.75 0 0 1-1.484.219 9.8 9.8 0 0 1 0-2.862M6.191 4.169a.75.75 0 1 1 .895 1.204 8.3 8.3 0 0 0-1.713 1.713.75.75 0 0 1-1.204-.895A9.8 9.8 0 0 1 6.19 4.17"></path></svg>