<svg xmlns:xlink="http://www.w3.org/1999/xlink" width="20" height="20" viewBox="0 0 20 20" fill="currentColor" xmlns="http://www.w3.org/2000/svg" class="icon" aria-hidden="true"><path d="M8.44824 8.218C8.52492 7.98941 8.84816 7.98938 8.9248 8.218L9.28809 9.30784C9.46326 9.83337 9.87587 10.2459 10.4014 10.4211L11.4912 10.7844C11.7205 10.8608 11.7205 11.1855 11.4912 11.2619L10.4014 11.6252C9.87585 11.8005 9.46327 12.213 9.28809 12.7385L8.9248 13.8283C8.84823 14.0572 8.52485 14.0571 8.44824 13.8283L8.08496 12.7385C7.90979 12.213 7.49715 11.8005 6.97168 11.6252L5.88184 11.2619C5.65258 11.1855 5.65258 10.8608 5.88184 10.7844L6.97168 10.4211C7.49712 10.2458 7.9098 9.83334 8.08496 9.30784L8.44824 8.218Z" fill="#0D0D0D"></path><path d="M12.0723 6.10765C12.12 5.96436 12.3224 5.96436 12.3701 6.10765L12.5977 6.78831C12.7071 7.11676 12.9645 7.37506 13.293 7.4846L13.9746 7.71116C14.1177 7.75902 14.1177 7.96218 13.9746 8.00999L13.293 8.23655C12.9646 8.3461 12.7071 8.60442 12.5977 8.93284L12.3701 9.6135C12.3223 9.75664 12.12 9.7567 12.0723 9.6135L11.8457 8.93284C11.7362 8.60433 11.4779 8.34605 11.1494 8.23655L10.4688 8.00999C10.3255 7.96223 10.3255 7.75892 10.4688 7.71116L11.1494 7.4846C11.4779 7.37509 11.7362 7.11682 11.8457 6.78831L12.0723 6.10765Z" fill="#0D0D0D"></path><path fill-rule="evenodd" clip-rule="evenodd" d="M9.00098 1.81761C9.6757 1.48574 10.4759 1.50965 11.1328 1.88889L16.459 4.96409L16.5869 5.04319C17.2117 5.46158 17.5908 6.16653 17.5908 6.92503V13.0754C17.5907 13.8339 17.2118 14.5389 16.5869 14.9573L16.459 15.0364L11.1328 18.1116C10.476 18.4908 9.67566 18.5146 9.00098 18.1828L8.86816 18.1116L3.54102 15.0364C2.8407 14.6318 2.40926 13.8842 2.40918 13.0754V6.92503C2.40918 6.11617 2.84064 5.36866 3.54102 4.96409L8.86816 1.88889L9.00098 1.81761ZM10.4678 3.04026C10.2149 2.89427 9.91027 2.8762 9.64453 2.98557L9.5332 3.04026L4.20605 6.11546C3.91705 6.28242 3.73926 6.59125 3.73926 6.92503V13.0754C3.73934 13.4091 3.91711 13.7181 4.20605 13.885L9.5332 16.9602L9.64453 17.0149C9.91024 17.1242 10.215 17.1061 10.4678 16.9602L15.7939 13.885L15.8975 13.8157C16.125 13.6402 16.2607 13.3673 16.2607 13.0754V6.92503C16.2607 6.63315 16.1249 6.36025 15.8975 6.18479L15.7939 6.11546L10.4678 3.04026Z" fill="#0D0D0D"></path></svg>