<svg xmlns:xlink="http://www.w3.org/1999/xlink" width="24" height="24" viewBox="0 0 24 24" fill="none" xmlns="http://www.w3.org/2000/svg" class="h-5 w-5"><g clip-path="url(#clip0_12737_7888)" fill="none"><mask id="mask0_12737_7888" style="mask-type: alpha;" maskUnits="userSpaceOnUse" x="0" y="0" width="24" height="24" fill="none"><path fill-rule="evenodd" clip-rule="evenodd" d="M17.0189 23.8367C17.3969 23.984 17.8279 23.9745 18.2094 23.7909L23.1506 21.4133C23.6698 21.1635 24 20.638 24 20.0615V3.9398C24 3.36332 23.6698 2.83784 23.1506 2.588L18.2094 0.210312C17.7087 -0.0306208 17.1227 0.0283926 16.6832 0.347878C16.6205 0.393517 16.5607 0.444473 16.5046 0.500629L7.04522 9.13057L2.92493 6.00291C2.54136 5.71177 2.00487 5.73563 1.64864 6.05967L0.327127 7.26179C-0.108612 7.65815 -0.109112 8.34366 0.326047 8.74069L3.8993 12.0006L0.326047 15.2606C-0.109112 15.6576 -0.108612 16.3431 0.327127 16.7395L1.64864 17.9416C2.00487 18.2656 2.54136 18.2895 2.92493 17.9983L7.04522 14.8707L16.5046 23.5006C16.6542 23.6504 16.8299 23.7631 17.0189 23.8367ZM18.0036 6.55235L10.8262 12.0006L18.0036 17.4489V6.55235Z" fill="#FFFFFF"></path></mask><g mask="url(#mask0_12737_7888)" fill="none"><path d="M23.1517 2.5915L18.2066 0.210543C17.6342 -0.0650529 16.9501 0.0511993 16.5009 0.500412L0.312575 15.2604C-0.122851 15.6574 -0.12235 16.3429 0.313655 16.7393L1.63597 17.9414C1.99242 18.2654 2.52924 18.2893 2.91303 17.9981L22.4075 3.20919C23.0616 2.71304 24.0009 3.1795 24.0009 4.00042V3.94301C24.0009 3.36677 23.6708 2.84148 23.1517 2.5915Z" fill="#0065A9"></path><g filter="url(#filter0_d_12737_7888)" fill="none"><path d="M23.1517 21.4088L18.2066 23.7897C17.6342 24.0654 16.9501 23.9491 16.5009 23.4999L0.312575 8.73991C-0.122851 8.3429 -0.12235 7.65737 0.313655 7.26101L1.63597 6.05889C1.99242 5.73485 2.52924 5.71099 2.91303 6.00214L22.4075 20.7911C23.0616 21.2872 24.0009 20.8208 24.0009 19.9999V20.0573C24.0009 20.6335 23.6708 21.1588 23.1517 21.4088Z" fill="#007ACC"></path></g><g filter="url(#filter1_d_12737_7888)" fill="none"><path d="M18.2059 23.791C17.6333 24.0664 16.9493 23.9499 16.5 23.5006C17.0535 24.0542 18 23.6621 18 22.8793V1.12195C18 0.339133 17.0535 -0.0529057 16.5 0.500629C16.9493 0.0513762 17.6333 -0.0650401 18.2059 0.210312L23.1501 2.58801C23.6696 2.83785 24 3.36333 24 3.93981V20.0615C24 20.638 23.6696 21.1635 23.1501 21.4133L18.2059 23.791Z" fill="#1F9CF0"></path></g><g style="mix-blend-mode: overlay;" opacity="0.25" fill="none"><path fill-rule="evenodd" clip-rule="evenodd" d="M17.0052 23.8367C17.3832 23.984 17.8142 23.9745 18.1957 23.791L23.1369 21.4134C23.6561 21.1635 23.9863 20.638 23.9863 20.0615V3.93982C23.9863 3.36331 23.6562 2.83783 23.1369 2.58799L18.1957 0.210312C17.695 -0.0306206 17.109 0.0283927 16.6696 0.347876C16.6068 0.393517 16.547 0.444474 16.4909 0.500629L7.03155 9.13056L2.91125 6.00293C2.52771 5.71176 1.9912 5.73564 1.63497 6.05966L0.313456 7.26178C-0.122284 7.65816 -0.122784 8.34367 0.312376 8.74068L3.88563 12.0006L0.312376 15.2606C-0.122784 15.6576 -0.122284 16.3431 0.313456 16.7395L1.63497 17.9416C1.9912 18.2656 2.52771 18.2895 2.91125 17.9983L7.03155 14.8707L16.4909 23.5006C16.6405 23.6503 16.8162 23.7631 17.0052 23.8367ZM17.99 6.55236L10.8125 12.0006L17.99 17.4489V6.55236Z" fill="url(&quot;#paint0_linear_12737_7888&quot;)"></path></g></g></g><defs><filter id="filter0_d_12737_7888" x="-2.01367" y="3.79883" width="28.0137" height="22.1387" filterUnits="userSpaceOnUse" color-interpolation-filters="sRGB"><feFlood flood-opacity="0" result="BackgroundImageFix"></feFlood><feColorMatrix in="SourceAlpha" type="matrix" values="0 0 0 0 0 0 0 0 0 0 0 0 0 0 0 0 0 0 127 0" result="hardAlpha"></feColorMatrix><feOffset></feOffset><feGaussianBlur stdDeviation="1"></feGaussianBlur><feColorMatrix type="matrix" values="0 0 0 0 0 0 0 0 0 0 0 0 0 0 0 0 0 0 0.25 0"></feColorMatrix><feBlend mode="overlay" in2="BackgroundImageFix" result="effect1_dropShadow_12737_7888"></feBlend><feBlend mode="normal" in="SourceGraphic" in2="effect1_dropShadow_12737_7888" result="shape"></feBlend></filter><filter id="filter1_d_12737_7888" x="14.5" y="-1.9375" width="11.5" height="27.877" filterUnits="userSpaceOnUse" color-interpolation-filters="sRGB"><feFlood flood-opacity="0" result="BackgroundImageFix"></feFlood><feColorMatrix in="SourceAlpha" type="matrix" values="0 0 0 0 0 0 0 0 0 0 0 0 0 0 0 0 0 0 127 0" result="hardAlpha"></feColorMatrix><feOffset></feOffset><feGaussianBlur stdDeviation="1"></feGaussianBlur><feColorMatrix type="matrix" values="0 0 0 0 0 0 0 0 0 0 0 0 0 0 0 0 0 0 0.25 0"></feColorMatrix><feBlend mode="overlay" in2="BackgroundImageFix" result="effect1_dropShadow_12737_7888"></feBlend><feBlend mode="normal" in="SourceGraphic" in2="effect1_dropShadow_12737_7888" result="shape"></feBlend></filter><linearGradient id="paint0_linear_12737_7888" x1="11.9863" y1="0.0624999" x2="11.9863" y2="23.9388" gradientUnits="userSpaceOnUse"><stop stop-color="white"></stop><stop offset="1" stop-color="white" stop-opacity="0"></stop></linearGradient><clipPath id="clip0_12737_7888"><rect width="24" height="24" fill="white"></rect></clipPath><linearGradient id="paint0_linear_12737_7888" x1="11.9863" y1="0.0624999" x2="11.9863" y2="23.9388" gradientUnits="userSpaceOnUse"><stop stop-color="white"></stop><stop offset="1" stop-color="white" stop-opacity="0"></stop></linearGradient></defs></svg>