<svg xmlns:xlink="http://www.w3.org/1999/xlink" width="16" height="16" viewBox="0 0 16 16" fill="currentColor" xmlns="http://www.w3.org/2000/svg" data-rtl-flip="" class="icon-sm"><path d="M8.36328 3.36261C8.59049 3.13571 8.94123 3.10739 9.19922 3.27765L9.30371 3.36261L13.4707 7.5296L13.5557 7.6341C13.7259 7.89208 13.6976 8.24282 13.4707 8.47003L9.30371 12.637C9.04407 12.8967 8.62299 12.8966 8.36328 12.637C8.10358 12.3773 8.10358 11.9563 8.36328 11.6966L11.3936 8.66535H3C2.63284 8.66535 2.33514 8.36743 2.33496 8.00031C2.33496 7.63304 2.63273 7.33527 3 7.33527H11.3945L8.36328 4.30402L8.27832 4.19953C8.10759 3.94137 8.13592 3.58997 8.36328 3.36261Z" fill="#FFFFFF"></path></svg>