<svg xmlns:xlink="http://www.w3.org/1999/xlink" xmlns="http://www.w3.org/2000/svg" fill="currentColor" viewBox="0 0 24 24" width="24" height="24" class="shrink-0 h-4 w-4"><path fill="#1C1C1C" d="M7.25 12c0-.773.043-1.526.122-2.25H4.063a8.25 8.25 0 0 0 0 4.5h3.31A21 21 0 0 1 7.25 12m1.879 3.75c.186.87.434 1.65.727 2.31.337.757.719 1.322 1.104 1.689.381.363.732.501 1.04.501s.659-.138 1.04-.501c.385-.367.767-.932 1.104-1.69.293-.66.54-1.44.727-2.309zm-4.477 0a8.27 8.27 0 0 0 4.371 3.943 9 9 0 0 1-.537-1.024c-.375-.845-.676-1.833-.887-2.919zm11.75 0c-.212 1.086-.513 2.074-.888 2.919a9 9 0 0 1-.538 1.024 8.27 8.27 0 0 0 4.372-3.943zM14.975 4.306q.293.476.538 1.025c.375.845.676 1.833.887 2.919h2.947a8.28 8.28 0 0 0-4.372-3.944M12 3.75c-.308 0-.659.138-1.04.501-.385.367-.767.933-1.104 1.69-.293.66-.54 1.44-.727 2.309h5.742a12 12 0 0 0-.727-2.31c-.337-.756-.719-1.322-1.104-1.689-.381-.363-.732-.501-1.04-.501m-2.977.556a8.28 8.28 0 0 0-4.37 3.944h2.946c.21-1.086.512-2.074.887-2.919q.245-.55.537-1.025M8.75 12c0 .782.047 1.536.132 2.25h6.236c.085-.714.132-1.468.132-2.25s-.047-1.536-.132-2.25H8.882A19 19 0 0 0 8.75 12m8 0c0 .773-.043 1.526-.122 2.25h3.308a8.25 8.25 0 0 0 0-4.5h-3.308c.08.724.122 1.477.122 2.25m5 0c0 5.385-4.365 9.75-9.75 9.75S2.25 17.385 2.25 12 6.615 2.25 12 2.25s9.75 4.365 9.75 9.75"></path></svg>